<?xml version="1.0" encoding="UTF-8" standalone="no"?>
<!-- Created with Inkscape (http://www.inkscape.org/) -->

<svg
   xmlns:dc="http://purl.org/dc/elements/1.1/"
   xmlns:cc="http://creativecommons.org/ns#"
   xmlns:rdf="http://www.w3.org/1999/02/22-rdf-syntax-ns#"
   xmlns:svg="http://www.w3.org/2000/svg"
   xmlns="http://www.w3.org/2000/svg"
   xmlns:xlink="http://www.w3.org/1999/xlink"
   xmlns:sodipodi="http://sodipodi.sourceforge.net/DTD/sodipodi-0.dtd"
   xmlns:inkscape="http://www.inkscape.org/namespaces/inkscape"
   width="135.46666mm"
   height="135.46666mm"
   viewBox="0 0 135.46666 135.46666"
   version="1.1"
   id="svg919"
   inkscape:version="0.92.4 (5da689c313, 2019-01-14)"
   sodipodi:docname="logo_512x512.svg">
  <defs
     id="defs913">
    <linearGradient
       inkscape:collect="always"
       xlink:href="#linearGradient876"
       id="linearGradient1008"
       gradientUnits="userSpaceOnUse"
       gradientTransform="matrix(1.9028083,0,0,1.9016722,-921.17746,-645.5899)"
       x1="382.56924"
       y1="372.83066"
       x2="453.76227"
       y2="372.83066" />
    <linearGradient
       inkscape:collect="always"
       id="linearGradient876">
      <stop
         style="stop-color:#00ccff;stop-opacity:1"
         offset="0"
         id="stop872" />
      <stop
         style="stop-color:#2a7fff;stop-opacity:1"
         offset="1"
         id="stop874" />
    </linearGradient>
  </defs>
  <sodipodi:namedview
     id="base"
     pagecolor="#ffffff"
     bordercolor="#666666"
     borderopacity="1.0"
     inkscape:pageopacity="0.0"
     inkscape:pageshadow="2"
     inkscape:zoom="0.35"
     inkscape:cx="643.14286"
     inkscape:cy="-66.85716"
     inkscape:document-units="mm"
     inkscape:current-layer="layer1"
     showgrid="false"
     showborder="false"
     inkscape:window-width="1600"
     inkscape:window-height="838"
     inkscape:window-x="-8"
     inkscape:window-y="-8"
     inkscape:window-maximized="1" />
  <metadata
     id="metadata916">
    <rdf:RDF>
      <cc:Work
         rdf:about="">
        <dc:format>image/svg+xml</dc:format>
        <dc:type
           rdf:resource="http://purl.org/dc/dcmitype/StillImage" />
        <dc:title></dc:title>
      </cc:Work>
    </rdf:RDF>
  </metadata>
  <g
     inkscape:label="Layer 1"
     inkscape:groupmode="layer"
     id="layer1"
     transform="translate(193.22143,4.3226173)">
    <path
       inkscape:connector-curvature="0"
       id="path1006"
       d="m -156.43434,131.07569 c -0.31888,-0.08 -1.45437,-0.3432 -2.52339,-0.592 l -1.94366,-0.45201 0.1728,-0.91344 c 0.48192,-2.54666 1.71261,-6.09596 2.86784,-8.27069 0.71072,-1.33801 1.25722,-2.45721 1.21439,-2.48713 -0.0432,-0.032 -1.20714,-0.66241 -2.58736,-1.40609 -16.28225,-8.77117 -27.79547,-23.580533 -32.2411,-41.471674 -1.4076,-5.664919 -1.7622,-8.812299 -1.74609,-15.49809 0.0152,-6.533161 0.32768,-9.382059 1.61746,-14.77377 l 0.6584,-2.752021 0.21776,3.621061 c 0.99435,16.535781 6.2586,26.025599 15.66677,28.242411 2.13322,0.5032 7.21425,0.567999 9.65991,0.123999 2.48485,-0.451199 5.96507,-2.196729 14.32863,-7.187639 13.1622,-7.854452 20.96625,-11.411511 29.88036,-13.619522 18.39018,-4.555149 35.823292,-1.16377 53.624792,10.432222 l 3.0702,1.99993 -0.35176,2.53306 c -1.31363,9.459169 -4.84615,18.970508 -9.92444,26.721588 -6.56458,10.019735 -14.84451,17.296575 -25.719272,22.603325 -8.97866,4.38155 -18.47014,6.6546 -27.78645,6.6546 h -3.15224 l -2.52001,1.59657 c -2.83188,1.79425 -6.36475,3.32186 -9.76288,4.22171 -1.7738,0.4696 -3.3895,0.6288 -7.21333,0.7088 -2.71015,0.056 -5.18842,0.04 -5.50726,-0.04 z m 8.55074,-5.92195 c 2.32233,-0.36481 6.08697,-1.44345 6.08697,-1.74433 0,-0.1224 -0.55432,-0.31361 -1.23189,-0.42481 -0.67752,-0.112 -2.71394,-0.6496 -4.52532,-1.19504 -3.12741,-0.94217 -3.31315,-0.96617 -3.68406,-0.47441 -0.47672,0.63201 -2.15295,3.71675 -2.15295,3.96211 0,0.2792 3.435,0.2016 5.50725,-0.1232 z m 27.52641,-7.13157 c 3.99381,-0.5688 8.7033,-1.80065 12.52174,-3.27529 19.176912,-7.40629 32.745982,-23.647894 36.610742,-43.821455 l 0.37376,-1.95113 -1.92204,-1.21521 c -5.54586,-3.506179 -13.09103,-6.82412 -18.95466,-8.33501 -5.488691,-1.414409 -9.439592,-1.839209 -15.576162,-1.674648 -12.85629,0.344799 -22.94954,3.98563 -41.15952,14.847289 -10.54169,6.287799 -12.80861,7.31756 -17.48479,7.94285 -6.47203,0.865521 -12.30028,-0.22161 -17.25507,-3.2181 -1.01267,-0.61281 -1.89101,-1.113611 -1.95185,-1.113611 -0.22624,0 2.18415,6.401081 3.33321,8.851652 5.41726,11.553266 14.94609,21.353723 26.47533,27.230153 l 2.75404,1.40377 1.99209,-1.82545 c 3.44403,-3.15586 8.82396,-6.44156 13.96638,-8.52989 l 1.79388,-0.72801 -7.9e-4,3.23866 -8e-4,3.23858 -1.26657,0.52081 c -2.74442,1.12776 -10.00989,5.71051 -10.02973,6.32635 -0.006,0.2128 5.33317,1.53545 8.10099,2.00713 5.13241,0.87465 11.89111,0.90577 17.68037,0.0816 z m 11.79787,-11.91687 c -7.5598,-4.68218 -12.47569,-11.478934 -14.90398,-20.606273 -0.6348,-2.386092 -0.74184,-3.420422 -0.76664,-7.408201 -0.028,-4.53459 0.0957,-5.551789 1.17231,-9.63254 l 0.47784,-1.811131 1.91336,-0.567999 c 1.05234,-0.312 2.71355,-0.752801 3.69158,-0.97976 l 1.77824,-0.412811 -0.87044,1.918491 c -2.88659,6.36252 -3.0782,14.64641 -0.48888,21.13861 2.59234,6.499799 7.21284,11.482057 13.52754,14.586554 1.63408,0.80337 2.97104,1.50001 2.97104,1.54817 0,0.0968 -3.98187,2.40498 -5.39648,3.12778 -0.89393,0.4568 -0.92756,0.4472 -3.10544,-0.90185 z m 10.350952,-32.630985 c -0.49752,-0.216799 -1.280141,-0.8856 -1.73914,-1.486958 -0.729122,-0.955371 -0.834542,-1.340652 -0.834542,-3.05018 0,-2.16834 0.45904,-3.079462 2.121181,-4.21059 3.63025,-2.47065 8.468331,0.764008 7.724451,5.164349 -0.21432,1.26777 -1.49266,2.91818 -2.772782,3.579781 -1.011909,0.523208 -3.300888,0.524809 -4.499168,0.004 z m 23.18389,32.553705 c 7.23418,-8.041317 13.16315,-20.217702 15.49355,-31.819375 0.90544,-4.50755 0.95047,-4.51267 1.52421,-0.173598 1.39419,10.544619 -3.08091,21.980846 -11.35931,29.028963 -1.79037,1.52433 -6.19817,4.42938 -6.72055,4.42938 -0.14096,0 0.33696,-0.6592 1.0621,-1.46553 z M -181.629,63.404586 c -3.61356,-3.72859 -5.70746,-10.87591 -5.70441,-19.471241 0.002,-7.080599 1.19136,-12.64903 3.81427,-17.86618 2.31858,-4.611709 10.36539,-13.46496 16.07226,-17.6830703 10.68076,-7.89427957 24.51944,-12.7017497 36.57759,-12.7067097 4.77662,-0.002 10.94121,1.31817 14.36064,3.0752199 l 1.05972,0.54480013 -1.97458,3.22914007 c -3.66474,5.9933096 -6.12077,8.6291699 -9.63646,10.3422209 l -1.93003,0.940329 1.00933,1.57944 c 3.6848,5.766201 5.60529,12.15568 5.70395,18.97676 l 0.0456,3.13721 -2.02898,0.72001 c -2.72692,0.96824 -7.15949,1.168562 -10.55237,0.4776 -3.23744,-0.659998 -4.85621,-1.206731 -12.58748,-4.25186 -7.93541,-3.125621 -11.17015,-4.00971 -14.67088,-4.00971 -3.18955,0 -4.90163,0.512011 -7.5875,2.26754 -5.18139,3.38722 -8.77599,8.445572 -10.88744,15.320891 -0.71384,2.324251 -0.78296,2.97089 -0.79872,7.469161 -0.0168,4.618268 0.0304,5.059709 0.754,7.097239 0.42416,1.19497 0.71552,2.229051 0.64744,2.29801 -0.068,0.072 -0.82668,-0.599999 -1.68576,-1.486239 z m 8.13728,-35.363491 c 5.64109,-3.743619 11.03487,-4.533149 18.21679,-2.66658 1.59423,0.414412 6.15944,2.038731 10.14496,3.60978 3.98552,1.570971 8.28987,3.13282 9.56525,3.47082 2.84506,0.75361 6.92618,1.10785 7.2238,0.62721 0.30392,-0.492 -0.36408,-4.475549 -1.19618,-7.133719 -1.02229,-3.265861 -2.83381,-6.60204 -6.13456,-11.297671 -1.76086,-2.50497 -2.72868,-4.12706 -2.53138,-4.242499 0.1756,-0.10321 2.08034,-0.7256103 4.23251,-1.3840913 2.15219,-0.65921 4.49138,-1.552249 5.19821,-1.986249 1.73714,-1.066491 4.58626,-4.4081906 4.02575,-4.7217107 -1.14006,-0.6368101 -5.51944,-0.92881 -9.0654,-0.60241 -11.79768,1.08473 -23.16968,5.6997197 -32.12619,13.03744 -2.90851,2.382811 -7.57884,7.254041 -9.76512,10.185022 -1.82156,2.442009 -3.73673,6.085639 -4.3069,8.193728 -0.29328,1.08432 -0.26752,1.068001 2.07419,-1.307209 1.30415,-1.322811 3.30406,-3.024261 4.44427,-3.780901 z m 107.347452,29.605131 c -9.70181,-6.13859 -21.69191,-10.555581 -31.884151,-11.74591 l -1.884051,-0.220001 1.594202,-0.370398 c 10.8265,-2.51274 22.74759,0.935678 30.71687,8.885489 1.7337,1.729531 4.62754,5.24411 4.28274,5.201629 -0.0392,-0.006 -1.31111,-0.7928 -2.82561,-1.751209 z m -34.107652,-23.11717 c -9.85612,-3.653141 -10.50042,-17.079621 -1.03469,-21.560851 1.791981,-0.848399 2.193981,-0.925039 4.852401,-0.925039 2.658411,0 3.06044,0.08 4.852411,0.925039 3.59818,1.70345 5.99271,4.898031 6.65206,8.874691 0.81681,4.926429 -1.93454,9.98582 -6.66612,12.25799 -2.22762,1.069848 -6.371771,1.274811 -8.656062,0.428811 z m 3.311322,-8.53245 c 1.978218,-0.716812 3.556878,-2.89642 3.54353,-4.89163 -0.0288,-4.318431 -5.36275,-6.745401 -8.593752,-3.91018 -4.26949,3.746419 -0.2636,10.728138 5.050222,8.80181 z"
       style="fill:url(#linearGradient1008);fill-opacity:1;stroke:none;stroke-width:0.2897692"
       inkscape:transform-center-x="48.380964"
       inkscape:transform-center-y="-423.33581" />
  </g>
</svg>
